<svg width="44" height="44" viewBox="0 0 44 44" fill="none" xmlns="http://www.w3.org/2000/svg">
<path fill-rule="evenodd" clip-rule="evenodd" d="M22 40.3333C32.1252 40.3333 40.3333 32.1252 40.3333 22C40.3333 11.8748 32.1252 3.66667 22 3.66667C11.8748 3.66667 3.66666 11.8748 3.66666 22C3.66666 32.1252 11.8748 40.3333 22 40.3333ZM34.2863 15.973C35.0078 15.2627 35.0168 14.1019 34.3064 13.3804C33.596 12.6589 32.4352 12.6499 31.7137 13.3603L18.1142 26.7506L12.2964 20.9328C11.5804 20.2168 10.4196 20.2168 9.70364 20.9328C8.98768 21.6488 8.98768 22.8096 9.70364 23.5255L16.8078 30.6297C17.5198 31.3417 18.6729 31.3462 19.3904 30.6397L34.2863 15.973Z" fill="#0079C2"/>
</svg>
