<?xml version="1.0" encoding="utf-8"?>
<!-- Generator: Adobe Illustrator 25.2.1, SVG Export Plug-In . SVG Version: 6.00 Build 0)  -->
<svg version="1.1" id="Layer_1" xmlns="http://www.w3.org/2000/svg" xmlns:xlink="http://www.w3.org/1999/xlink" x="0px" y="0px"
	 viewBox="0 0 657.5 124.8" style="enable-background:new 0 0 657.5 124.8;" xml:space="preserve">
<g id="Layer_2_1_">
	<g id="Layer_1-2">
		<path d="M165.9,124.8c-15.7,0.1-30.7-6.1-41.9-17.1c-3-2.9-3-7.6-0.2-10.6c2.9-3,7.6-3,10.6-0.2c0.1,0.1,0.1,0.1,0.2,0.2
			c17.3,17.2,45.3,17,62.4-0.3s17-45.3-0.3-62.4c-8.2-8.2-19.4-12.8-31-12.8c-8.9,0-17.5,3-24.6,8.3c-4,2.9-7.8,6.1-11.4,9.4
			L75.5,93.6c-2.9,2.9-7.7,2.9-10.6,0c-2.9-2.9-2.9-7.7,0-10.6c0,0,0,0,0,0l54.4-54.4c4.3-4,8.8-7.8,13.6-11.3
			c9.6-7,21.1-10.7,33-10.7c32.7,0.2,58.9,26.9,58.7,59.5c-0.2,30-22.9,55.1-52.7,58.4C169.9,124.7,167.9,124.8,165.9,124.8z"/>
		<path d="M59.2,124.8C26.5,124.8,0,98.3,0,65.7C0,33,26.5,6.6,59.1,6.6c15.7,0,30.8,6.2,41.9,17.4c2.9,2.9,2.9,7.7,0,10.6
			s-7.7,2.9-10.6,0c-17.2-17.2-45.1-17.2-62.4,0s-17.2,45.1,0,62.4c8.3,8.3,19.5,12.9,31.1,12.9c8.9,0,17.5-2.8,24.6-8.1
			c4-3,7.8-6.2,11.4-9.6l54.2-54.2c2.8-3,7.6-3.2,10.6-0.3c3,2.8,3.2,7.6,0.3,10.6c-0.1,0.1-0.2,0.3-0.4,0.4l-54.4,54.3
			c-4.3,4-8.7,7.8-13.4,11.2C82.6,121.1,71,124.9,59.2,124.8z"/>
		<path d="M331.2,88.7c-1.6,8.5-6,16.2-12.4,21.8c-6.4,5.1-14.3,7.8-22.4,7.6c-7,0.1-13.8-2-19.5-5.9c-4.9-3.1-8.9-7.4-11.6-12.5
			c-0.7-1.5-1.4-3-2-4.3c-0.6-1.8-1-3.7-1.3-5.6c-0.9-7.9-1.2-15.8-1-23.7c-0.2-8,0.1-15.9,1-23.9c0.5-3.4,1.7-6.7,3.4-9.8
			c2.8-5.1,6.7-9.4,11.6-12.6c13.4-8.6,30.8-7.4,42.9,2.8c6,5.8,10,13.3,11.4,21.4h-16c-1.2-4.1-3.5-7.7-6.7-10.5
			c-3.5-2.8-7.8-4.3-12.2-4.3c-3.2,0-6.3,0.8-9.1,2.2c-2.4,1.3-4.6,3.1-6.2,5.3c-2.1,2.4-3.4,5.4-3.9,8.6c-0.9,6.8-1.3,13.8-1,20.7
			c-0.2,6.8,0.1,13.7,1,20.4c1,5.9,4.8,11,10.1,13.8c2.8,1.6,6,2.4,9.2,2.3c8.6,0,14.9-4.7,18.9-14L331.2,88.7z"/>
		<path d="M344.5,66.1c-0.2-8,0.1-16,1-23.9c0.5-3.4,1.7-6.7,3.3-9.8c2.7-5.1,6.7-9.4,11.5-12.6c5.8-3.9,12.6-5.9,19.6-5.7
			c13-0.3,25,6.8,31,18.4c1.8,3,3,6.3,3.5,9.8c0.8,7.9,1.1,15.9,0.9,23.9c0.2,7.9-0.1,15.9-0.9,23.8c-0.4,3.5-1.6,6.9-3.5,9.9
			c-2.6,5.1-6.5,9.4-11.3,12.5c-11.9,7.9-27.4,7.9-39.2,0c-4.8-3.1-8.8-7.4-11.5-12.5c-0.7-1.5-1.4-3-2-4.3
			c-0.7-1.8-1.1-3.7-1.4-5.6C344.7,82,344.3,74.1,344.5,66.1z M359.5,66.1c-0.2,6.8,0.1,13.7,1.1,20.5c0.5,3.2,1.8,6.1,3.9,8.6
			c1.6,2.2,3.8,4,6.2,5.2c2.8,1.6,5.9,2.4,9.1,2.3c3.3,0.1,6.5-0.7,9.4-2.2c2.4-1.2,4.4-3,6-5.1c2.1-2.5,3.4-5.4,4-8.6
			c0.8-6.8,1.2-13.6,1-20.5c0.2-6.9-0.2-13.8-1-20.6c-0.6-3.2-1.9-6.1-4-8.6c-1.6-2.2-3.6-4-6-5.3c-2.9-1.4-6-2.1-9.2-2.2
			c-3.2,0-6.3,0.8-9.1,2.2c-2.5,1.3-4.6,3.1-6.3,5.3c-2.1,2.4-3.4,5.4-3.9,8.6C359.7,52.4,359.4,59.2,359.5,66.1L359.5,66.1z"/>
		<path d="M439.2,15h38.6c7.3-0.3,14.5,2.1,20.2,6.7c6.4,5.4,10.1,13.4,9.9,21.9c0.6,12.7-7.2,24.2-19.2,28.4l22.9,45.4h-17.8
			l-20.5-43.8H454v43.8h-15L439.2,15z M454.2,60H477c8.7,0.6,16.2-6,16.8-14.7c0-0.5,0-1.1,0-1.6c0.2-2.2-0.2-4.4-1.1-6.4
			c-0.9-2-2.2-3.8-3.9-5.2c-3.2-2.3-7.1-3.4-11.1-3.2h-23.6V60z"/>
		<path d="M530.7,15H594v14.5h-48.5v29.3h41.3v13.9h-41.2v30h48.3v14.6h-63.2V15z"/>
		<path d="M611.1,25.6l11.2-14.4c0.4-0.5,0.7-1,0.9-1.6c0.1-0.4,0.1-0.9,0-1.3c0-1.1-0.3-2.1-1-2.9c-0.4-0.4-0.8-0.7-1.3-0.9
			c-0.5-0.2-1-0.3-1.5-0.3c-0.5,0-1,0.1-1.5,0.2c-0.5,0.2-0.9,0.5-1.3,0.9c-0.8,0.8-1.3,1.9-1.4,3.1h-4.3c0-2.3,0.9-4.4,2.4-6.1
			c1.5-1.5,3.5-2.4,5.6-2.4c1.1,0,2.2,0.2,3.2,0.6c1,0.4,2,1,2.8,1.8c1.6,1.6,2.4,3.8,2.4,6c0,1.9-0.6,3.7-1.8,5.2l-9.1,11.8h11v4.3
			H611L611.1,25.6z"/>
		<path d="M632.5,25.4h4.1v4.3h-4.1V25.4z"/>
		<path d="M641.2,8.5c-0.1-2.4,0.8-4.7,2.5-6.3c3.2-2.8,8-2.8,11.3,0c0.8,0.8,1.5,1.8,1.9,2.9c0.4,1.1,0.6,2.2,0.6,3.4v12.9
			c0,2.3-0.9,4.6-2.6,6.2c-3.2,3-8.1,3-11.3,0c-1.7-1.6-2.6-3.9-2.4-6.2V8.5z M653.4,8.7c0-2.9-1.4-4.3-4.1-4.3s-3.9,1.5-4,4.3v12.3
			c0,3,1.4,4.3,4,4.3s4-1.5,4.1-4.3V8.7z"/>
	</g>
</g>
</svg>
