<svg xmlns="http://www.w3.org/2000/svg" viewBox="0 0 657.52 124.82"><defs><style>.cls-1{fill:#fff;}</style></defs><g id="Layer_2" data-name="Layer 2"><g id="Layer_1-2" data-name="Layer 1"><path class="cls-1" d="M165.85,124.81A59,59,0,0,1,124,107.67a7.5,7.5,0,1,1,10.63-10.58A44.14,44.14,0,1,0,165.8,21.6a41,41,0,0,0-24.59,8.31,137.54,137.54,0,0,0-11.44,9.42L75.52,93.58a7.51,7.51,0,0,1-10.6,0,7.5,7.5,0,0,1,0-10.61l54.42-54.37A144.83,144.83,0,0,1,132.9,17.27a55.45,55.45,0,0,1,33-10.67,59.13,59.13,0,0,1,6,117.91A55.52,55.52,0,0,1,165.85,124.81Z"/><path class="cls-1" d="M59.15,124.82A59.13,59.13,0,1,1,101,23.92,7.51,7.51,0,1,1,90.35,34.54a44.09,44.09,0,1,0-31.2,75.28,40.84,40.84,0,0,0,24.6-8.1,138.18,138.18,0,0,0,11.44-9.64l54.24-54.24A7.5,7.5,0,1,1,160,48.47L105.6,102.75A147.49,147.49,0,0,1,92.15,114,55.12,55.12,0,0,1,59.15,124.82Z"/><path class="cls-1" d="M331.19,88.74a38.49,38.49,0,0,1-12.42,21.85,34.76,34.76,0,0,1-22.41,7.59,33.88,33.88,0,0,1-19.49-5.92A33.43,33.43,0,0,1,265.3,99.75c-.73-1.54-1.37-3-2-4.28A29.84,29.84,0,0,1,262,89.9a179.22,179.22,0,0,1-1-23.74,177.66,177.66,0,0,1,1-23.86,29,29,0,0,1,3.35-9.77,35.1,35.1,0,0,1,11.57-12.64,36.19,36.19,0,0,1,42.93,2.82,39.16,39.16,0,0,1,11.39,21.43H315.26a22,22,0,0,0-6.69-10.54,19.29,19.29,0,0,0-12.25-4.29,21.4,21.4,0,0,0-9.13,2.19,19.36,19.36,0,0,0-6.25,5.27,17,17,0,0,0-3.9,8.57A125.67,125.67,0,0,0,276,66,123.08,123.08,0,0,0,277,86.43a19.3,19.3,0,0,0,10.15,13.79,17.45,17.45,0,0,0,9.17,2.32q12.86,0,18.94-14Z"/><path class="cls-1" d="M344.52,66.11a175,175,0,0,1,1-23.9,29,29,0,0,1,3.34-9.77,34.93,34.93,0,0,1,11.52-12.6A33.47,33.47,0,0,1,380,14.1a33.93,33.93,0,0,1,31,18.38,24.23,24.23,0,0,1,3.47,9.77,198,198,0,0,1,.9,23.86,200.81,200.81,0,0,1-.9,23.78,24.1,24.1,0,0,1-3.47,9.9,32.56,32.56,0,0,1-11.27,12.51,35.49,35.49,0,0,1-39.25,0,33.77,33.77,0,0,1-11.52-12.51c-.73-1.54-1.41-3-2-4.28a26.51,26.51,0,0,1-1.37-5.62A173.21,173.21,0,0,1,344.52,66.11Zm15,0a124,124,0,0,0,1.07,20.48,17,17,0,0,0,3.9,8.57,16.79,16.79,0,0,0,6.25,5.15,17.19,17.19,0,0,0,9.13,2.31,18.27,18.27,0,0,0,9.38-2.23,16.36,16.36,0,0,0,6-5.14,18.33,18.33,0,0,0,4-8.57,138.76,138.76,0,0,0,1-20.48,140.59,140.59,0,0,0-1-20.61,18.57,18.57,0,0,0-4-8.57,18.32,18.32,0,0,0-6-5.31A22.37,22.37,0,0,0,380,29.52a21.07,21.07,0,0,0-9.12,2.19A19,19,0,0,0,364.57,37a17.22,17.22,0,0,0-3.9,8.57A126.2,126.2,0,0,0,359.56,66.11Z"/><path class="cls-1" d="M439.21,15h38.56A29.94,29.94,0,0,1,498,21.69a27.66,27.66,0,0,1,9.86,21.85A28.53,28.53,0,0,1,488.7,71.9l22.92,45.42H493.8L473.27,73.57H454v43.75H439Zm15,44.95H477a15.79,15.79,0,0,0,16.84-16.33,13.94,13.94,0,0,0-1.08-6.41,13.76,13.76,0,0,0-3.89-5.2,16.87,16.87,0,0,0-11.06-3.17h-23.6Z"/><path class="cls-1" d="M530.69,15H594V29.52h-48.5V58.83h41.26V72.76H545.51v30h48.33v14.57H530.69Z"/><path class="cls-1" d="M611.07,25.63l11.22-14.36a5,5,0,0,0,.86-1.63,4.86,4.86,0,0,0,0-1.32,4.67,4.67,0,0,0-1-2.92,3.85,3.85,0,0,0-1.26-.89,3.79,3.79,0,0,0-1.52-.31,3.84,3.84,0,0,0-1.54.25,3.77,3.77,0,0,0-1.29.87,4.71,4.71,0,0,0-1.37,3.12H610.9a9.08,9.08,0,0,1,2.39-6.08A7.73,7.73,0,0,1,618.86,0a8.21,8.21,0,0,1,3.25.58,8.05,8.05,0,0,1,2.75,1.82,8.56,8.56,0,0,1,2.4,6,8.26,8.26,0,0,1-1.75,5.19l-9.13,11.78h11v4.28H611Z"/><path class="cls-1" d="M632.53,25.37h4.07v4.29h-4.07Z"/><path class="cls-1" d="M641.23,8.49a7.86,7.86,0,0,1,2.53-6.26,8.58,8.58,0,0,1,11.27,0,8.65,8.65,0,0,1,1.88,2.88,8.47,8.47,0,0,1,.6,3.38V21.34a8.55,8.55,0,0,1-2.57,6.21,8.21,8.21,0,0,1-11.27,0,7.78,7.78,0,0,1-2.44-6.21Zm12.17.25c0-2.95-1.41-4.28-4.07-4.28s-3.94,1.54-4,4.28V21.08c0,3,1.41,4.29,4,4.29s4-1.5,4.07-4.29Z"/></g></g></svg>