<svg width="101" height="100" viewBox="0 0 101 100" fill="none" xmlns="http://www.w3.org/2000/svg">
  <g clip-path="url(#clip0_1135_1169)">
    <path d="M100.5 95.3713C100.5 96.5992 100.012 97.7768 99.144 98.645C98.2758 99.5132 97.0982 100.001 95.8704 100.001H5.12963C3.90178 100.001 2.72422 99.5132 1.856 98.645C0.987774 97.7768 0.5 96.5992 0.5 95.3713V4.63061C0.5 3.40275 0.987774 2.22518 1.856 1.35696C2.72422 0.488736 3.90178 0.000976562 5.12963 0.000976562H95.8704C97.0982 0.000976562 98.2758 0.488736 99.144 1.35696C100.012 2.22518 100.5 3.40275 100.5 4.63061V95.3713Z" fill="#0079C2"/>
    <path d="M81.7037 46.8621C81.7037 46.8621 85.2685 42.6584 88.6481 39.3991C89.5029 38.4339 90.4987 37.6036 91.6018 36.9362H88.1296C87.3608 36.9171 86.6144 37.1957 86.0462 37.714C86.0462 37.714 82.7962 41.2973 77.287 47.8158C77.287 47.8158 77.7222 47.8621 85.9629 60.6121C85.9629 60.6121 86.7407 61.7417 87.6944 61.6121H92.6111C92.6111 61.6121 90.5555 60.8713 81.7037 46.8621ZM78.2777 83.6214C76.7163 83.9037 75.1169 83.9037 73.5555 83.6214C71.861 83.5288 71.8147 82.2787 71.8147 82.2787V74.6399C73.9736 74.4915 76.1408 74.5132 78.2962 74.7047C79.5555 74.7047 79.9074 75.0843 79.9074 75.0843L80.4629 71.7417C80.4629 71.7417 80.2129 71.9639 76.7592 71.8713H71.8518V65.1028C71.8518 64.0195 73.1203 64.0843 73.1203 64.0843C78.3703 63.9547 79.4999 64.2602 79.4999 64.2602C80.7129 64.2602 81.0555 64.8899 81.0555 64.8899L81.6203 62.1584C81.8425 61.6214 80.4073 61.6862 80.4073 61.6862H78.3703C76.8981 61.8343 76.9351 60.251 76.9351 60.251C76.9351 56.0658 76.9351 52.4948 76.9351 49.538V38.7047C77.0277 37.0565 77.9259 36.9362 77.9259 36.9362H75.8888C83.6574 13.0751 84.611 12.6769 84.611 12.6769C82.8819 12.87 81.1365 12.87 79.4073 12.6769C80.7962 13.1954 79.7037 15.6677 79.7037 15.6677C77.2314 24.1769 75.074 29.5565 75.074 29.5565C71.8611 21.6584 71.037 19.5751 71.037 19.5751C68.611 13.288 68.7777 12.501 68.7777 12.501C67.0657 12.7223 65.3323 12.7223 63.6203 12.501C64.4907 12.8528 63.9444 14.5843 63.9444 14.5843C61.4351 23.1306 59.4537 28.3806 59.4537 28.3806C54.7222 19.1213 53.2777 14.3251 53.2777 14.3251C52.6296 12.3343 51.7129 12.5936 51.7129 12.5936C36.8981 12.7602 34.1666 12.5473 34.1666 12.5473C35.7685 12.8065 35.6388 16.4084 35.6388 16.4084V32.5473L26.1759 17.4917C24.0926 14.1121 24.2592 12.6399 24.2592 12.6399H16.9814C18.1573 13.4176 18.1111 16.1954 18.1111 16.1954C18.3905 22.4836 18.3473 28.782 17.9814 35.0658C17.9599 35.6259 17.7221 36.1558 17.3181 36.5443C16.9141 36.9327 16.3753 37.1495 15.8148 37.1491H21.5833C23.8796 37.3621 22.361 40.6213 22.361 40.6213L18.0925 48.2417C18.0925 48.2417 14.0648 40.6584 13.1296 39.4639C12.391 38.3953 11.3677 37.5549 10.1759 37.038H4.35181C4.35181 37.038 6.51846 37.4176 9.08327 40.4732C11.6481 43.5287 13.1203 47.1028 14.1203 48.8065C14.8577 49.9723 15.2818 51.3086 15.3518 52.6862V58.8065C15.3318 59.4547 15.1133 60.0811 14.7258 60.601C14.3383 61.121 13.8005 61.5095 13.1851 61.7139L16.5277 61.6677C18.9537 61.538 19.037 65.2325 19.037 65.2325C19.1759 74.4917 19.037 82.0565 19.037 82.0565C19.0833 85.6584 17.3055 86.2232 17.3055 86.2232C20.195 86.0547 23.0919 86.0547 25.9814 86.2232C30.1666 86.6491 30.7592 86.2973 30.7592 86.2973C31.7777 86.0658 31.8425 85.3714 31.8425 85.3714L32.3611 82.4084C32.089 82.7963 31.7411 83.1251 31.3385 83.3749C30.9359 83.6248 30.4869 83.7905 30.0185 83.8621C28.2293 84.0175 26.4309 84.036 24.6388 83.9177C24.6388 83.9177 22.787 83.788 22.8981 82.6214C22.8981 82.6214 22.5555 72.0565 23.037 63.2973C23.044 63.0054 23.1095 62.718 23.2295 62.4518C23.3495 62.1857 23.5216 61.9463 23.7356 61.7478C23.9497 61.5492 24.2013 61.3956 24.4757 61.296C24.7502 61.1964 25.0417 61.1527 25.3333 61.1676H21.1666C19.037 60.8621 19.037 59.3899 19.037 59.3899V53.7047C18.9629 52.5288 19.8425 50.6677 20.5 49.4547C20.8981 48.7325 21.2129 48.2325 21.2129 48.2325C27.4999 37.2139 28.4074 37.001 28.4074 37.001H23.5092C22.9722 36.9762 22.4615 36.7615 22.0681 36.3952C21.6747 36.0289 21.4241 35.5348 21.3611 35.001V17.9639C32.287 34.4917 33.9629 37.5288 33.9629 37.5288C32.6459 37.749 31.402 38.2852 30.3376 39.0915C29.2733 39.8979 28.4203 40.9502 27.8518 42.1584C26.8748 44.4587 26.4255 46.9487 26.537 49.4454C26.537 50.1306 26.5925 50.5288 26.5925 50.5288C26.6759 57.3343 28.9351 59.0288 28.9351 59.0288C30.4999 60.8806 33.8333 61.4176 33.8333 61.4176C35.6851 61.8528 35.6111 64.9269 35.6111 64.9269V73.6028C35.6111 82.8065 34.8796 84.4917 34.8796 84.4917C34.5277 86.0936 33.3981 86.1862 33.3981 86.1862C36.0125 85.9168 38.6503 85.9759 41.25 86.3621C40.8269 86.2248 40.4532 85.9666 40.1751 85.6195C39.897 85.2723 39.7267 84.8513 39.6851 84.4084C39.4722 73.7325 39.6851 64.9639 39.6851 64.9639C39.6851 62.1399 41.4259 61.4454 41.4259 61.4454C45.5 60.4084 46.1574 58.9362 46.1574 58.9362C48.6296 56.3528 48.7314 51.3436 48.6666 49.4362C48.6666 48.8714 48.6666 48.5658 48.6666 48.5658C48.6666 43.2973 46.1481 40.501 46.1481 40.501C44.4073 38.325 40.8981 37.288 40.8981 37.288H49.8333C52.4444 37.5473 52.3981 41.5473 52.3981 41.5473C52.655 44.1563 52.7663 46.7777 52.7314 49.3991C52.7314 53.9084 52.3518 57.5102 52.3518 57.5102C52.0092 61.4547 50.2685 61.1491 50.2685 61.1491H48.0092C49.4907 61.5843 49.2685 65.2417 49.2685 65.2417C49.5277 74.0843 48.8796 83.6769 48.8796 83.6769C48.8961 84.2197 48.7532 84.7554 48.4685 85.2179C48.1838 85.6803 47.7698 86.0491 47.2777 86.2788C49.6295 86.0362 52 86.0362 54.3518 86.2788C53.0462 85.9732 53.0925 83.1954 53.0925 83.1954L53 75.1306C58.4629 74.8714 60.1111 75.214 60.1111 75.214C60.6513 75.1434 61.1981 75.2825 61.6388 75.6028L62.324 72.0565C61.0638 72.2346 59.7897 72.2935 58.5185 72.2325H53.0462V64.8251C53.0925 64.0473 54.3518 64.0843 54.3518 64.0843C59.7685 63.788 60.9351 64.1862 60.9351 64.1862C62.1573 64.2788 62.2407 64.6491 62.2407 64.6491L62.7222 62.3065C63.0648 61.3806 61.9814 61.538 61.9814 61.538H58.7314C56.3426 61.7139 56.6481 59.6862 56.6481 59.6862V40.6121C56.6288 40.3006 56.7233 39.9927 56.9141 39.7457C57.1049 39.4988 57.3789 39.3295 57.6851 39.2695C59.2055 38.8938 60.7944 38.8938 62.3148 39.2695C62.9133 39.4257 63.4483 39.7648 63.8449 40.2395C64.2416 40.7142 64.4803 41.3008 64.5277 41.9176C64.6569 42.6659 64.6058 43.4342 64.3788 44.1588C64.1517 44.8835 63.7552 45.5435 63.2222 46.0843C62.2594 46.8808 61.0457 47.3105 59.7962 47.2973C58.8703 47.1213 59.324 47.7325 59.324 47.7325C59.5154 48.2695 59.7283 48.8343 59.9629 49.4269C61.9814 54.501 65.1111 60.8343 65.1111 60.8343C65.2796 61.0954 65.516 61.3057 65.7949 61.4427C66.0738 61.5797 66.3847 61.6383 66.6944 61.6121C67.7592 61.7232 67.6944 63.2139 67.6944 63.2139C67.8703 73.4547 67.5185 82.6584 67.5185 82.6584C67.3055 85.9084 66.0462 86.2139 66.0462 86.2139C71.7314 85.8621 73.287 86.2139 73.287 86.2139C80.3981 86.6491 80.6944 86.3065 80.6944 86.3065C81.4721 86.3065 81.6203 84.7417 81.6203 84.7417L82.2777 81.7047C81.4907 83.8158 78.2777 83.6214 78.2777 83.6214ZM42.6666 41.7325C42.6666 41.7325 44.074 43.7788 44.1851 48.4639C44.1851 48.4639 44.4259 54.0195 43.037 57.1028C42.4815 58.2067 41.6072 59.1182 40.5275 59.7192C39.4477 60.3201 38.2123 60.5828 36.9814 60.4732C35.9497 60.4025 34.9546 60.0627 34.0952 59.4876C33.2358 58.9125 32.5421 58.1222 32.0833 57.1954C32.0833 57.1954 30.5648 54.7139 30.824 48.4639C30.824 48.4639 30.7407 43.7325 32.1111 41.7325C32.7163 40.8049 33.5602 40.0575 34.554 39.5687C35.5479 39.0799 36.6551 38.8678 37.7592 38.9547C38.7506 38.9376 39.7286 39.1862 40.5915 39.6747C41.4545 40.1631 42.171 40.8736 42.6666 41.7325ZM57.6296 36.3158C57.6296 36.9269 56.9629 37.0102 56.9629 37.0102H51.5185C51.9722 32.6491 51.9537 32.1121 51.9537 32.1121C51.0277 33.7417 50.3888 33.8528 50.3888 33.8528C48.9166 34.6306 42.1018 34.4547 42.1018 34.4547C41.5938 34.5055 41.0852 34.3646 40.6757 34.0597C40.2663 33.7548 39.9856 33.3078 39.8888 32.8065C39.7592 28.9084 39.8888 25.8158 39.8888 25.8158C39.9119 25.7423 39.9573 25.6779 40.0187 25.6314C40.0801 25.585 40.1545 25.5588 40.2314 25.5565C47.6944 25.2973 47.824 25.8621 47.824 25.8621L48.2592 22.3065C47.7826 22.4675 47.2883 22.5701 46.787 22.6121C42.6203 22.8343 39.8888 22.6954 39.8888 22.6954V17.2695C39.7963 15.1399 41.4073 15.1399 41.4073 15.1399C46.1388 14.9269 46.9629 15.1399 46.9629 15.1399C47.5602 15.1389 48.1432 15.3226 48.6322 15.6656C49.1211 16.0087 49.4921 16.4945 49.6944 17.0565C52.2812 22.0675 54.6114 27.2069 56.6759 32.4547C57.9074 35.6676 57.6296 36.3158 57.6296 36.3158V36.3158ZM69.4351 59.1769C67.1141 55.614 65.0828 51.8705 63.3611 47.9825C64.721 47.8049 66.004 47.25 67.0648 46.3806C67.6707 45.8425 68.1402 45.1683 68.4348 44.4133C68.7294 43.6584 68.8406 42.8443 68.7592 42.038C68.7592 42.038 68.6018 38.7695 65.9351 37.6584C65.9351 37.6584 65.0092 36.9269 60.6018 37.0102C60.6018 37.0102 60.7314 35.9639 60.9259 35.1584C60.9259 35.1584 63.0277 27.6769 66.324 18.4362C66.324 18.4362 68.7129 23.5936 72.7499 35.2602C72.9558 35.792 73.0867 36.3498 73.1388 36.9176H71.287C71.287 36.9176 72.4444 37.1306 72.7499 40.6213C72.7499 40.6213 73.2685 49.8158 72.7037 60.3621C72.7037 60.3621 72.7037 61.5565 72.2685 61.5565C72.2314 61.5473 71.25 62.038 69.4351 59.1769V59.1769Z" fill="white"/>
  </g>
  <defs>
    <clipPath id="clip0_1135_1169">
      <rect width="100" height="100" fill="white" transform="translate(0.5 0.000976562)"/>
    </clipPath>
  </defs>
</svg>
